<?xml version="1.0" standalone="no"?>
<!DOCTYPE svg PUBLIC "-//W3C//DTD SVG 20010904//EN"
 "http://www.w3.org/TR/2001/REC-SVG-20010904/DTD/svg10.dtd">
<svg version="1.0" xmlns="http://www.w3.org/2000/svg"
 width="135.000000pt" height="135.000000pt" viewBox="0 0 135.000000 135.000000"
 preserveAspectRatio="xMidYMid meet">
<metadata>
Created by potrace 1.11, written by Peter Selinger 2001-2013
</metadata>
<g transform="translate(0.000000,135.000000) scale(0.100000,-0.100000)"
fill="#000000" stroke="none">
<path d="M550 1309 c-25 -6 -49 -11 -55 -13 -5 -2 -23 -6 -40 -11 -77 -20
-191 -91 -265 -165 -131 -131 -194 -289 -186 -464 5 -105 24 -175 72 -267 73
-139 219 -261 376 -313 127 -43 301 -46 424 -8 294 91 485 353 470 644 -8 159
-68 289 -187 409 -87 88 -192 146 -319 178 -83 20 -220 25 -290 10z"/>
</g>
</svg>
