<svg xmlns="http://www.w3.org/2000/svg" xmlns:xlink="http://www.w3.org/1999/xlink" width="80.067" height="34.954" viewBox="0 0 80.067 34.954">
  <defs>
    <linearGradient id="linear-gradient" x1="1.083" y1="-0.114" x2="0.251" y2="0.795" gradientUnits="objectBoundingBox">
      <stop offset="0" stop-color="#01fe87"/>
      <stop offset="1" stop-color="#00aeb9"/>
    </linearGradient>
  </defs>
  <g id="logo_header_wh" transform="translate(-1196.463 -1822.633)">
    <g id="그룹_19" data-name="그룹 19" transform="translate(1196.463 1822.902)">
      <path id="패스_43" data-name="패스 43" d="M1196.463,1830.528h7.183c4.514,0,8.229,1.6,8.229,6.661,0,4.872-3.771,7.018-8.092,7.018h-2.395v6.8h-4.926Zm7.073,9.8c2.395,0,3.551-1.129,3.551-3.138,0-2.064-1.321-2.78-3.688-2.78h-2.01v5.918Z" transform="translate(-1196.463 -1829.014)" fill="#fff"/>
      <path id="패스_44" data-name="패스 44" d="M1273.582,1840.726v-16.9h4.872v17.092c0,1.018.5,1.321.881,1.321a2.272,2.272,0,0,0,.55-.055l.578,3.605a6.41,6.41,0,0,1-2.422.412C1274.683,1846.2,1273.582,1844,1273.582,1840.726Z" transform="translate(-1256.161 -1823.827)" fill="#fff"/>
      <path id="패스_45" data-name="패스 45" d="M1306.11,1861.813c0-3.3,2.587-5.091,8.7-5.752-.11-1.266-.771-2.009-2.367-2.009a8.6,8.6,0,0,0-4.1,1.376l-1.706-3.22a13.021,13.021,0,0,1,6.743-2.064c4.046,0,6.33,2.257,6.33,7.156v8.89h-3.991l-.358-1.569h-.11a6.69,6.69,0,0,1-4.486,1.954A4.522,4.522,0,0,1,1306.11,1861.813Zm8.7-.275v-2.5c-3.055.413-4.046,1.294-4.046,2.395,0,.908.661,1.349,1.679,1.349A3.086,3.086,0,0,0,1314.807,1861.538Z" transform="translate(-1281.341 -1844.199)" fill="#fff"/>
      <path id="패스_46" data-name="패스 46" d="M1373.239,1850.529h3.99l.33,1.954h.11a7.083,7.083,0,0,1,5.009-2.339c3.413,0,4.872,2.449,4.872,6.358v9.688h-4.9v-9.083c0-2.147-.578-2.78-1.817-2.78a3.745,3.745,0,0,0-2.725,1.4v10.459h-4.871Z" transform="translate(-1333.306 -1844.199)" fill="#fff"/>
    </g>
    <g id="그룹_21" data-name="그룹 21" transform="translate(1240.18 1849.187)">
      <g id="그룹_20" data-name="그룹 20" transform="translate(0)">
        <path id="패스_47" data-name="패스 47" d="M1389.986,1945.859h.854l.082.545h.027a2.53,2.53,0,0,1,1.535-.672c1.271,0,1.98,1.008,1.98,2.542,0,1.716-1.026,2.7-2.152,2.7a2.059,2.059,0,0,1-1.317-.563l.027.854v1.616h-1.035Zm3.4,2.433c0-1.044-.336-1.689-1.172-1.689a1.754,1.754,0,0,0-1.189.608v2.443a1.694,1.694,0,0,0,1.09.454C1392.837,1950.109,1393.382,1949.464,1393.382,1948.292Z" transform="translate(-1389.986 -1944.479)" fill="#fff"/>
        <path id="패스_48" data-name="패스 48" d="M1412.617,1949.527c0-1.072.908-1.625,2.987-1.853-.009-.581-.218-1.089-.953-1.089a2.749,2.749,0,0,0-1.444.508l-.391-.708a3.825,3.825,0,0,1,2.016-.654c1.244,0,1.816.79,1.816,2.116v3.005h-.853l-.091-.572h-.027a2.48,2.48,0,0,1-1.589.69A1.38,1.38,0,0,1,1412.617,1949.527Zm2.987.036v-1.226c-1.48.182-1.979.554-1.979,1.117,0,.491.336.691.781.691A1.761,1.761,0,0,0,1415.6,1949.564Z" transform="translate(-1407.504 -1944.479)" fill="#fff"/>
        <path id="패스_49" data-name="패스 49" d="M1436.215,1945.859h.853l.082.9h.027a1.726,1.726,0,0,1,1.417-1.026,1.244,1.244,0,0,1,.563.109l-.191.908a1.476,1.476,0,0,0-.5-.082c-.409,0-.9.282-1.217,1.072v3.114h-1.035Z" transform="translate(-1425.772 -1944.479)" fill="#fff"/>
        <path id="패스_50" data-name="패스 50" d="M1450.086,1944.924V1942.4h-.726v-.781l.772-.054.118-1.38h.881v1.38h1.3v.835h-1.3v2.534c0,.6.209.908.727.908a1.49,1.49,0,0,0,.536-.118l.191.772a3.174,3.174,0,0,1-.981.182C1450.477,1946.677,1450.086,1945.977,1450.086,1944.924Z" transform="translate(-1435.947 -1940.184)" fill="#fff"/>
        <path id="패스_51" data-name="패스 51" d="M1466.966,1945.859h.854l.082.69h.027a2.38,2.38,0,0,1,1.653-.817c1.062,0,1.535.708,1.535,1.979v3.142h-1.044v-3.015c0-.862-.255-1.208-.845-1.208a1.7,1.7,0,0,0-1.226.681v3.541h-1.035Z" transform="translate(-1449.576 -1944.479)" fill="#fff"/>
        <path id="패스_52" data-name="패스 52" d="M1489.678,1948.365a2.425,2.425,0,0,1,2.28-2.633c1.325,0,2.034.953,2.034,2.37a2.683,2.683,0,0,1-.045.526H1490.7a1.508,1.508,0,0,0,1.543,1.526,2.118,2.118,0,0,0,1.19-.373l.363.663a3.032,3.032,0,0,1-1.689.527A2.4,2.4,0,0,1,1489.678,1948.365Zm3.415-.454c0-.863-.391-1.362-1.117-1.362a1.354,1.354,0,0,0-1.281,1.362Z" transform="translate(-1467.158 -1944.479)" fill="#fff"/>
        <path id="패스_53" data-name="패스 53" d="M1513.153,1945.859h.854l.082.9h.027a1.727,1.727,0,0,1,1.417-1.026,1.241,1.241,0,0,1,.563.109l-.191.908a1.477,1.477,0,0,0-.5-.082c-.409,0-.9.282-1.217,1.072v3.114h-1.035Z" transform="translate(-1485.329 -1944.479)" fill="#fff"/>
        <path id="패스_54" data-name="패스 54" d="M1526.219,1950.281l.49-.672a2.213,2.213,0,0,0,1.417.572c.6,0,.881-.291.881-.672,0-.454-.563-.653-1.107-.862-.663-.254-1.426-.608-1.426-1.453s.672-1.462,1.771-1.462a2.629,2.629,0,0,1,1.625.59l-.491.645a1.869,1.869,0,0,0-1.117-.436c-.545,0-.8.272-.8.618,0,.427.518.59,1.062.79.7.264,1.471.572,1.471,1.516,0,.835-.663,1.517-1.9,1.517A3.072,3.072,0,0,1,1526.219,1950.281Z" transform="translate(-1495.444 -1944.479)" fill="#fff"/>
      </g>
    </g>
    <path id="패스_55" data-name="패스 55" d="M1476.153,1836.313h0a3.432,3.432,0,0,0-1.788.5l-7.139,4.355a2.909,2.909,0,0,1-4.424-2.483v-9.85a2.909,2.909,0,0,1,4.424-2.484l7.139,4.355a3.43,3.43,0,0,0,1.788.5h0a1.508,1.508,0,0,0,1.372-2.136,11.13,11.13,0,1,0,.008,9.356A1.5,1.5,0,0,0,1476.153,1836.313Z" transform="translate(-201.139 0)" fill="url(#linear-gradient)"/>
  </g>
</svg>
