<svg xmlns="http://www.w3.org/2000/svg" width="150" height="150" viewBox="0 0 150 150">
  <g id="icon_creator-01" transform="translate(-522 -1344)">
    <rect id="사각형_30" data-name="사각형 30" width="150" height="150" transform="translate(522 1344)" fill="#fff"/>
    <g id="그룹_81" data-name="그룹 81" transform="translate(505.681 961.859)">
      <rect id="사각형_78" data-name="사각형 78" width="69.773" height="116.15" rx="7.33" transform="translate(55.319 399.141)" fill="#9775ff"/>
      <path id="패스_151" data-name="패스 151" d="M121.994,407.512v98.307a1.854,1.854,0,0,1-1.854,1.854H60.267a1.855,1.855,0,0,1-1.855-1.854V407.512a1.855,1.855,0,0,1,1.855-1.854H75.14l.071.292a3.873,3.873,0,0,0,3.766,2.966h22.454a3.873,3.873,0,0,0,3.765-2.964l.071-.294H120.14A1.854,1.854,0,0,1,121.994,407.512Z" fill="#fdfdfc"/>
      <g id="그룹_79" data-name="그룹 79">
        <path id="패스_152" data-name="패스 152" d="M90.206,443.412A24.505,24.505,0,0,0,67.669,458.29H81.181C82.679,449.542,86.155,443.412,90.206,443.412Z" fill="#9775ff"/>
        <path id="패스_153" data-name="패스 153" d="M80.394,467.914a57.379,57.379,0,0,1,.787-9.624H67.669a24.528,24.528,0,0,0-.6,17.685H80.94A58.607,58.607,0,0,1,80.394,467.914Z" fill="#b0a9ff"/>
        <path id="패스_154" data-name="패스 154" d="M100.017,467.914a58.452,58.452,0,0,1-.546,8.061h13.873a24.528,24.528,0,0,0-.6-17.685H99.231A57.383,57.383,0,0,1,100.017,467.914Z" fill="#b0a9ff"/>
        <path id="패스_155" data-name="패스 155" d="M80.94,475.975H67.068a24.507,24.507,0,0,0,23.138,16.441C85.918,492.416,82.275,485.545,80.94,475.975Z" fill="#9775ff"/>
        <path id="패스_156" data-name="패스 156" d="M99.471,475.975c-1.335,9.57-4.978,16.441-9.265,16.441a24.507,24.507,0,0,0,23.138-16.441Z" fill="#9775ff"/>
        <path id="패스_157" data-name="패스 157" d="M99.231,458.29h13.512a24.506,24.506,0,0,0-22.537-14.878C94.256,443.412,97.733,449.542,99.231,458.29Z" fill="#9775ff"/>
        <path id="패스_158" data-name="패스 158" d="M99.231,458.29H81.181a57.379,57.379,0,0,0-.787,9.624,58.607,58.607,0,0,0,.546,8.061H99.471a58.452,58.452,0,0,0,.546-8.061A57.383,57.383,0,0,0,99.231,458.29Z" fill="#9775ff"/>
        <path id="패스_159" data-name="패스 159" d="M99.471,475.975H80.94c1.335,9.57,4.978,16.441,9.266,16.441S98.136,485.545,99.471,475.975Z" fill="#b0a9ff"/>
        <path id="패스_160" data-name="패스 160" d="M81.181,458.29h18.05c-1.5-8.748-4.975-14.878-9.025-14.878S82.679,449.542,81.181,458.29Z" fill="#b0a9ff"/>
      </g>
      <g id="그룹_80" data-name="그룹 80">
        <path id="패스_161" data-name="패스 161" d="M131.3,420.6H96.112a9.428,9.428,0,0,0-9.427,9.427v21.729a9.427,9.427,0,0,0,9.427,9.427h1.812l-1.812,7.948,10.514-7.948H131.3a9.428,9.428,0,0,0,9.427-9.427V430.024A9.428,9.428,0,0,0,131.3,420.6Z" fill="#74f7a4"/>
        <line id="선_51" data-name="선 51" x1="14.875" transform="translate(97.217 431.574)" fill="none" stroke="#3e3e3e" stroke-linecap="round" stroke-linejoin="round" stroke-width="2"/>
        <line id="선_52" data-name="선 52" x1="32.982" transform="translate(97.217 440.074)" fill="none" stroke="#3e3e3e" stroke-linecap="round" stroke-linejoin="round" stroke-width="2"/>
        <line id="선_53" data-name="선 53" x1="32.982" transform="translate(97.217 448.574)" fill="none" stroke="#3e3e3e" stroke-linecap="round" stroke-linejoin="round" stroke-width="2"/>
        <path id="패스_162" data-name="패스 162" d="M131.3,420.6H96.112a9.428,9.428,0,0,0-9.427,9.427v21.729a9.427,9.427,0,0,0,9.427,9.427h1.812l-1.812,7.948,10.514-7.948H131.3a9.428,9.428,0,0,0,9.427-9.427V430.024A9.428,9.428,0,0,0,131.3,420.6Z" fill="none" stroke="#3e3e3e" stroke-linecap="round" stroke-linejoin="round" stroke-width="2"/>
      </g>
    </g>
  </g>
</svg>
