<svg xmlns="http://www.w3.org/2000/svg" width="150" height="150" viewBox="0 0 150 150">
  <g id="icon_brand-01" transform="translate(-522 -1344)">
    <rect id="사각형_30" data-name="사각형 30" width="150" height="150" transform="translate(522 1344)" fill="#fff"/>
    <g id="그룹_107" data-name="그룹 107" transform="translate(-39.057 951.743)">
      <rect id="사각형_105" data-name="사각형 105" width="77.42" height="23.357" transform="translate(597.424 417.257)" fill="#8fa7ff"/>
      <rect id="사각형_106" data-name="사각형 106" width="9.945" height="64.009" transform="translate(668.138 423.963) rotate(90)" fill="#fff"/>
      <rect id="사각형_107" data-name="사각형 107" width="81.98" height="49.604" transform="translate(595.144 466.955)" fill="#fff" stroke="#3e3e3e" stroke-linecap="round" stroke-linejoin="round" stroke-width="2"/>
      <path id="사각형_108" data-name="사각형 108" d="M0,0H18.031a0,0,0,0,1,0,0V19.792a9.015,9.015,0,0,1-9.015,9.015h0A9.015,9.015,0,0,1,0,19.792V0A0,0,0,0,1,0,0Z" transform="translate(591.057 452.551)" fill="#6477ff"/>
      <path id="사각형_109" data-name="사각형 109" d="M0,0H18.031a0,0,0,0,1,0,0V19.792a9.015,9.015,0,0,1-9.015,9.015h0A9.015,9.015,0,0,1,0,19.792V0A0,0,0,0,1,0,0Z" transform="translate(627.118 452.551)" fill="#6477ff"/>
      <path id="사각형_110" data-name="사각형 110" d="M0,0H18.031a0,0,0,0,1,0,0V19.792a9.015,9.015,0,0,1-9.015,9.015h0A9.015,9.015,0,0,1,0,19.792V0A0,0,0,0,1,0,0Z" transform="translate(663.18 452.551)" fill="#6477ff"/>
      <path id="사각형_111" data-name="사각형 111" d="M0,0H18.031a0,0,0,0,1,0,0V19.792a9.015,9.015,0,0,1-9.015,9.015h0A9.015,9.015,0,0,1,0,19.792V0A0,0,0,0,1,0,0Z" transform="translate(609.087 452.551)" fill="#eaedf1"/>
      <path id="사각형_112" data-name="사각형 112" d="M0,0H18.031a0,0,0,0,1,0,0V19.792a9.015,9.015,0,0,1-9.015,9.015h0A9.015,9.015,0,0,1,0,19.792V0A0,0,0,0,1,0,0Z" transform="translate(645.149 452.551)" fill="#eaedf1"/>
      <path id="패스_205" data-name="패스 205" d="M612.908,440.614H597.424l-6.367,11.937h18.031Z" fill="#8fa7ff"/>
      <path id="패스_206" data-name="패스 206" d="M643.876,440.614H628.392l-1.273,11.937h18.031Z" fill="#8fa7ff"/>
      <path id="패스_207" data-name="패스 207" d="M674.844,440.614H659.36l3.82,11.937h18.031Z" fill="#8fa7ff"/>
      <path id="패스_208" data-name="패스 208" d="M628.392,440.614H612.908l-3.82,11.937h18.031Z" fill="#fff"/>
      <path id="패스_209" data-name="패스 209" d="M659.36,440.614H643.876l1.273,11.937H663.18Z" fill="#fff"/>
      <line id="선_76" data-name="선 76" x2="77.956" transform="translate(597.424 440.614)" fill="#fff" stroke="#3e3e3e" stroke-linecap="round" stroke-linejoin="round" stroke-width="2"/>
      <line id="선_77" data-name="선 77" x2="89.197" transform="translate(591.803 452.614)" fill="#fff" stroke="#3e3e3e" stroke-linecap="round" stroke-linejoin="round" stroke-width="2"/>
      <rect id="사각형_113" data-name="사각형 113" width="16.739" height="25.922" transform="translate(649.385 490.637)" fill="#74f7a4"/>
      <rect id="사각형_114" data-name="사각형 114" width="35.096" height="8.276" transform="translate(604.538 490.637)" fill="#6477ff"/>
      <line id="선_78" data-name="선 78" x2="89.733" transform="translate(591.267 516.559)" fill="#fff" stroke="#3e3e3e" stroke-linecap="round" stroke-linejoin="round" stroke-width="2"/>
    </g>
  </g>
</svg>
