<svg xmlns="http://www.w3.org/2000/svg" width="110" height="110" viewBox="0 0 110 110">
  <g id="패스_267" data-name="패스 267" fill="none">
    <path d="M55,0A55,55,0,1,1,0,55,55,55,0,0,1,55,0Z" stroke="none"/>
    <path d="M 55 15 C 32.94390869140625 15 15 32.94390869140625 15 55 C 15 77.05609130859375 32.94390869140625 95 55 95 C 71.94676208496094 95 87.07429504394531 84.37994384765625 92.6436767578125 68.57109069824219 C 94.22923278808594 64.07270812988281 95 59.63356018066406 95 55 C 95 32.94390869140625 77.05609130859375 15 55 15 M 55 0 C 85.37564849853516 0 110 24.62435150146484 110 55 C 110 61.40926361083984 108.9037094116211 67.56246948242188 106.7906188964844 73.5574951171875 C 99.35247039794922 94.67082214355469 78.96638488769531 110 55 110 C 24.62435150146484 110 0 85.37564849853516 0 55 C 0 24.62435150146484 24.62435150146484 0 55 0 Z" stroke="none" fill="#01fe87"/>
  </g>
</svg>
