<svg xmlns="http://www.w3.org/2000/svg" width="20.001" height="20" viewBox="0 0 20.001 20">
  <path id="제외_1" data-name="제외 1" d="M-2355,603a10.011,10.011,0,0,1-10-10,10.011,10.011,0,0,1,10-10,10.012,10.012,0,0,1,10,10A10.012,10.012,0,0,1-2355,603Zm.273-6.321a1.825,1.825,0,0,0-1.255.446,1.465,1.465,0,0,0-.5,1.142,1.465,1.465,0,0,0,.5,1.142,1.825,1.825,0,0,0,1.255.446,1.83,1.83,0,0,0,1.255-.446,1.467,1.467,0,0,0,.5-1.142,1.467,1.467,0,0,0-.5-1.142A1.83,1.83,0,0,0-2354.728,596.679ZM-2356.392,586h0l.405,9.354h2.566l.4-9.354Z" transform="translate(2365 -583)" fill="#01fe87"/>
</svg>
