<svg xmlns="http://www.w3.org/2000/svg" width="150" height="150" viewBox="0 0 150 150">
  <g id="icon_brand-02" transform="translate(-884 -1344)">
    <rect id="사각형_28" data-name="사각형 28" width="150" height="150" transform="translate(884 1344)" fill="#fff"/>
    <g id="그룹_106" data-name="그룹 106" transform="translate(175.05 947.879)">
      <path id="패스_200" data-name="패스 200" d="M726.95,424.269v62.214a3.857,3.857,0,0,0,3.7,4H836.3a3.857,3.857,0,0,0,3.7-4V424.269a3.035,3.035,0,0,0-2.909-3.148H729.859A3.036,3.036,0,0,0,726.95,424.269Z" fill="#8fa7ff"/>
      <g id="그룹_99" data-name="그룹 99">
        <rect id="사각형_97" data-name="사각형 97" width="6.692" height="19.872" transform="translate(788.267 451.995)" fill="#fff"/>
        <rect id="사각형_98" data-name="사각형 98" width="6.692" height="26.473" transform="translate(800 445.394)" fill="#6477ff"/>
        <rect id="사각형_99" data-name="사각형 99" width="6.692" height="32.743" transform="translate(811.734 439.124)" fill="#74f7a4"/>
        <rect id="사각형_100" data-name="사각형 100" width="6.692" height="28.453" transform="translate(823.467 443.414)" fill="#eaedf1"/>
        <line id="선_66" data-name="선 66" x2="17.826" transform="translate(734.734 434.587)" fill="#fff" stroke="#3e3e3e" stroke-linecap="round" stroke-linejoin="round" stroke-width="2"/>
        <line id="선_67" data-name="선 67" x2="17.826" transform="translate(734.734 441.8)" fill="#fff" stroke="#3e3e3e" stroke-linecap="round" stroke-linejoin="round" stroke-width="2"/>
        <line id="선_68" data-name="선 68" x2="17.826" transform="translate(734.734 449.012)" fill="#fff" stroke="#3e3e3e" stroke-linecap="round" stroke-linejoin="round" stroke-width="2"/>
        <rect id="사각형_101" data-name="사각형 101" width="17.826" height="17.037" transform="translate(734.734 459.958)" fill="#fff"/>
        <line id="선_69" data-name="선 69" x1="17.826" transform="translate(759.734 474.995)" fill="#fff" stroke="#3e3e3e" stroke-linecap="round" stroke-linejoin="round" stroke-width="2"/>
        <line id="선_70" data-name="선 70" x1="17.826" transform="translate(759.734 467.782)" fill="#fff" stroke="#3e3e3e" stroke-linecap="round" stroke-linejoin="round" stroke-width="2"/>
        <line id="선_71" data-name="선 71" x1="17.826" transform="translate(759.734 460.57)" fill="#fff" stroke="#3e3e3e" stroke-linecap="round" stroke-linejoin="round" stroke-width="2"/>
        <rect id="사각형_102" data-name="사각형 102" width="17.826" height="17.037" transform="translate(759.734 432.587)" fill="#fff"/>
        <line id="선_72" data-name="선 72" x2="46.007" transform="translate(786.209 471.867)" fill="#fff" stroke="#3e3e3e" stroke-linecap="round" stroke-linejoin="round" stroke-width="2"/>
      </g>
      <g id="그룹_105" data-name="그룹 105">
        <g id="그룹_101" data-name="그룹 101">
          <g id="그룹_100" data-name="그룹 100">
            <path id="패스_201" data-name="패스 201" d="M764.468,512.314l-.078-4.759L778.365,489.3s2.14-5.31-3.254-5.717c0,0-1.883-.619-5.9,4.779l-2.349,2.512.035-22.108a3.461,3.461,0,0,0-6.922-.067l-.043,14.322-.03,1.157.053-16.54a3.461,3.461,0,1,0-6.921-.068l-.05,15.115-.023,1.158.051-16.3a3.462,3.462,0,0,0-3.61-3.494,3.588,3.588,0,0,0-3.314,3.608l-.007.593a3.46,3.46,0,0,0-6.907.255l.015,19.712a39.753,39.753,0,0,0,4.34,18.037l.594,1.166-.018,4.955" fill="#fff" stroke="#3e3e3e" stroke-linecap="round" stroke-linejoin="round" stroke-width="2"/>
            <line id="선_73" data-name="선 73" y2="15.769" transform="translate(746.085 468.253)" fill="#fff" stroke="#3e3e3e" stroke-linecap="round" stroke-linejoin="round" stroke-width="2"/>
            <path id="패스_202" data-name="패스 202" d="M759.9,484.527V465.106a3.5,3.5,0,0,1,3.5-3.5h0a3.5,3.5,0,0,1,3.5,3.5v20.359" fill="#fff" stroke="#3e3e3e" stroke-linecap="round" stroke-linejoin="round" stroke-width="2"/>
            <line id="선_74" data-name="선 74" y2="2.649" transform="translate(746.085 481.373)" fill="#fff" stroke="#3e3e3e" stroke-linecap="round" stroke-linejoin="round" stroke-width="2"/>
          </g>
        </g>
        <rect id="사각형_103" data-name="사각형 103" width="25.406" height="8.048" transform="translate(741.491 512.378)" fill="#74f7a4"/>
        <g id="그룹_104" data-name="그룹 104">
          <g id="그룹_103" data-name="그룹 103">
            <g id="그룹_102" data-name="그룹 102">
              <path id="패스_203" data-name="패스 203" d="M802.483,515.336l.078-4.759-13.975-18.252s-2.14-5.31,3.254-5.717c0,0,1.883-.619,5.9,4.779l2.349,2.512-.036-8.987a3.462,3.462,0,0,1,6.923-.068l.043,1.2.029,1.157-.053-3.419a3.461,3.461,0,1,1,6.922-.068l.049,1.994.023,1.158-.05-3.18a3.46,3.46,0,0,1,3.609-3.493,3.589,3.589,0,0,1,3.315,3.608l.007.592a3.46,3.46,0,0,1,6.907.255l-.009,6.605a39.789,39.789,0,0,1-4.34,18.013l-.6,1.177.018,4.955" fill="#fff" stroke="#3e3e3e" stroke-linecap="round" stroke-linejoin="round" stroke-width="2"/>
              <path id="패스_204" data-name="패스 204" d="M807.047,487.549V468.128a3.5,3.5,0,0,0-3.5-3.5h0a3.5,3.5,0,0,0-3.5,3.5v20.359" fill="#fff" stroke="#3e3e3e" stroke-linecap="round" stroke-linejoin="round" stroke-width="2"/>
              <line id="선_75" data-name="선 75" y2="2.649" transform="translate(820.866 484.395)" fill="#fff" stroke="#3e3e3e" stroke-linecap="round" stroke-linejoin="round" stroke-width="2"/>
            </g>
          </g>
          <rect id="사각형_104" data-name="사각형 104" width="25.406" height="8.048" transform="translate(800.054 512.378)" fill="#74f7a4"/>
        </g>
      </g>
    </g>
  </g>
</svg>
