<svg xmlns="http://www.w3.org/2000/svg" width="150" height="150" viewBox="0 0 150 150">
  <g id="icon_brand-03" transform="translate(-1246 -1344)">
    <rect id="사각형_29" data-name="사각형 29" width="150" height="150" transform="translate(1246 1344)" fill="#fff"/>
    <g id="그룹_109" data-name="그룹 109" transform="translate(413.802 954.015)">
      <rect id="사각형_115" data-name="사각형 115" width="69.773" height="116.15" rx="7.33" transform="translate(873.193 407.341)" fill="#6477ff"/>
      <path id="패스_210" data-name="패스 210" d="M939.868,415.712v98.307a1.854,1.854,0,0,1-1.855,1.854H878.14a1.854,1.854,0,0,1-1.854-1.854V415.712a1.854,1.854,0,0,1,1.854-1.854h14.874l.07.292a3.875,3.875,0,0,0,3.766,2.966H919.3a3.873,3.873,0,0,0,3.765-2.964l.071-.294h14.873A1.854,1.854,0,0,1,939.868,415.712Z" fill="#fdfdfc"/>
      <path id="패스_211" data-name="패스 211" d="M917.716,439.985a11.236,11.236,0,0,0-9.637,5.451,11.244,11.244,0,0,0-20.881,5.793c0,14.054,20.881,24.64,20.881,24.64s20.881-10.386,20.881-24.64A11.244,11.244,0,0,0,917.716,439.985Z" fill="#74f7a4"/>
      <path id="패스_212" data-name="패스 212" d="M887.438,414.985a8.557,8.557,0,0,0-7.339,4.151,8.562,8.562,0,0,0-15.9,4.411c0,10.7,15.9,18.764,15.9,18.764S896,434.4,896,423.547A8.562,8.562,0,0,0,887.438,414.985Z" fill="#74f7a4"/>
      <path id="패스_213" data-name="패스 213" d="M935.323,389.985a6.674,6.674,0,0,0-5.724,3.237,6.678,6.678,0,0,0-12.4,3.441c0,8.346,12.4,14.633,12.4,14.633s12.4-6.168,12.4-14.633A6.677,6.677,0,0,0,935.323,389.985Z" fill="#74f7a4"/>
      <g id="그룹_108" data-name="그룹 108">
        <rect id="사각형_116" data-name="사각형 116" width="3.704" height="3.75" transform="translate(890.758 485.322)" fill="#3e3e3e"/>
        <rect id="사각형_117" data-name="사각형 117" width="3.704" height="3.75" transform="translate(890.758 495.572)" fill="#3e3e3e"/>
        <line id="선_79" data-name="선 79" x2="25.815" transform="translate(899.586 487.197)" fill="#fff" stroke="#3e3e3e" stroke-linecap="round" stroke-linejoin="round" stroke-width="2"/>
        <line id="선_80" data-name="선 80" x2="25.815" transform="translate(899.586 497.197)" fill="#fff" stroke="#3e3e3e" stroke-linecap="round" stroke-linejoin="round" stroke-width="2"/>
      </g>
      <path id="패스_215" data-name="패스 215" d="M917.716,439.985a11.236,11.236,0,0,0-9.637,5.451,11.244,11.244,0,0,0-20.881,5.793c0,14.054,20.881,24.64,20.881,24.64s20.881-10.386,20.881-24.64A11.244,11.244,0,0,0,917.716,439.985Z" fill="none" stroke="#3e3e3e" stroke-linecap="round" stroke-linejoin="round" stroke-width="2"/>
      <circle id="타원_17" data-name="타원 17" cx="17.225" cy="17.225" r="17.225" transform="translate(915.855 419.11)" fill="#ff6969"/>
      <path id="패스_214" data-name="패스 214" d="M929.542,431.874l4.1-3.311v14.325" fill="none" stroke="#fff" stroke-linecap="round" stroke-linejoin="round" stroke-width="2"/>
    </g>
  </g>
</svg>
