<svg xmlns="http://www.w3.org/2000/svg" xmlns:xlink="http://www.w3.org/1999/xlink" width="109.963" height="48.029" viewBox="0 0 109.963 48.029">
  <defs>
    <linearGradient id="linear-gradient" x1="1.083" y1="-0.114" x2="0.251" y2="0.795" gradientUnits="objectBoundingBox">
      <stop offset="0" stop-color="#01fe87"/>
      <stop offset="1" stop-color="#00aeb9"/>
    </linearGradient>
  </defs>
  <g id="logo_header_bk" transform="translate(-322.781 -2047.472)">
    <g id="그룹_2" data-name="그룹 2" transform="translate(322.781 2047.842)">
      <g id="그룹_1" data-name="그룹 1">
        <path id="패스_1" data-name="패스 1" d="M322.781,2055.367h9.87c6.2,0,11.308,2.194,11.308,9.152,0,6.694-5.181,9.643-11.118,9.643h-3.29v9.341h-6.769Zm9.719,13.463c3.29,0,4.878-1.55,4.878-4.311,0-2.836-1.815-3.82-5.068-3.82H329.55v8.131Z" transform="translate(-322.781 -2053.287)" fill="#01152f"/>
        <path id="패스_2" data-name="패스 2" d="M399.9,2071.886v-23.22h6.694v23.485c0,1.4.681,1.815,1.21,1.815a3.142,3.142,0,0,0,.756-.075l.794,4.954a8.8,8.8,0,0,1-3.328.567C401.413,2079.412,399.9,2076.386,399.9,2071.886Z" transform="translate(-375.963 -2048.666)" fill="#01152f"/>
        <path id="패스_3" data-name="패스 3" d="M432.429,2091.018c0-4.538,3.555-7,11.95-7.9-.151-1.74-1.059-2.76-3.252-2.76a11.808,11.808,0,0,0-5.635,1.891l-2.345-4.425a17.894,17.894,0,0,1,9.266-2.836c5.559,0,8.7,3.1,8.7,9.832v12.215h-5.484l-.491-2.156h-.151a9.194,9.194,0,0,1-6.165,2.685A6.213,6.213,0,0,1,432.429,2091.018Zm11.95-.378V2087.2c-4.2.568-5.559,1.777-5.559,3.29,0,1.248.908,1.853,2.307,1.853A4.238,4.238,0,0,0,444.379,2090.639Z" transform="translate(-398.395 -2066.814)" fill="#01152f"/>
        <path id="패스_4" data-name="패스 4" d="M499.557,2075.513h5.483l.454,2.685h.151a9.733,9.733,0,0,1,6.883-3.214c4.689,0,6.694,3.365,6.694,8.736v13.312h-6.732v-12.48c0-2.95-.794-3.82-2.5-3.82-1.513,0-2.42.681-3.744,1.929v14.371h-6.694Z" transform="translate(-444.687 -2066.814)" fill="#01152f"/>
      </g>
    </g>
    <g id="그룹_4" data-name="그룹 4" transform="translate(382.849 2083.959)">
      <g id="그룹_3" data-name="그룹 3" transform="translate(0)">
        <path id="패스_5" data-name="패스 5" d="M516.3,2170.746h1.173l.112.749h.038a3.478,3.478,0,0,1,2.109-.923c1.747,0,2.72,1.385,2.72,3.493,0,2.358-1.41,3.706-2.957,3.706a2.828,2.828,0,0,1-1.809-.774l.038,1.173v2.221H516.3Zm4.666,3.344c0-1.435-.461-2.32-1.61-2.32a2.409,2.409,0,0,0-1.634.836v3.356a2.325,2.325,0,0,0,1.5.624C520.221,2176.586,520.97,2175.7,520.97,2174.09Z" transform="translate(-516.304 -2168.849)" fill="#01152f"/>
        <path id="패스_6" data-name="패스 6" d="M538.935,2175.787c0-1.472,1.248-2.233,4.1-2.545-.012-.8-.3-1.5-1.31-1.5a3.776,3.776,0,0,0-1.983.7l-.537-.973a5.253,5.253,0,0,1,2.77-.9c1.709,0,2.495,1.085,2.495,2.907v4.129H543.3l-.124-.786h-.038a3.409,3.409,0,0,1-2.183.949A1.9,1.9,0,0,1,538.935,2175.787Zm4.1.05v-1.685c-2.033.25-2.72.762-2.72,1.535,0,.674.462.948,1.073.948A2.419,2.419,0,0,0,543.04,2175.837Z" transform="translate(-531.911 -2168.849)" fill="#01152f"/>
        <path id="패스_7" data-name="패스 7" d="M562.533,2170.746h1.173l.112,1.235h.038a2.372,2.372,0,0,1,1.947-1.41,1.719,1.719,0,0,1,.774.149l-.262,1.248a2.032,2.032,0,0,0-.686-.112c-.562,0-1.235.387-1.672,1.473v4.279h-1.422Z" transform="translate(-548.184 -2168.849)" fill="#01152f"/>
        <path id="패스_8" data-name="패스 8" d="M576.676,2171.536v-3.469h-1v-1.073l1.06-.075.162-1.9h1.21v1.9H579.9v1.148h-1.785v3.481c0,.823.287,1.248,1,1.248a2.059,2.059,0,0,0,.736-.162l.262,1.06a4.378,4.378,0,0,1-1.347.25C577.213,2173.944,576.676,2172.983,576.676,2171.536Z" transform="translate(-557.249 -2165.023)" fill="#01152f"/>
        <path id="패스_9" data-name="패스 9" d="M593.285,2170.746h1.172l.112.948h.038a3.271,3.271,0,0,1,2.271-1.123c1.459,0,2.109.973,2.109,2.72v4.317h-1.435v-4.143c0-1.185-.35-1.659-1.161-1.659a2.344,2.344,0,0,0-1.684.936v4.866h-1.422Z" transform="translate(-569.391 -2168.849)" fill="#01152f"/>
        <path id="패스_10" data-name="패스 10" d="M616,2174.19a3.332,3.332,0,0,1,3.132-3.618c1.822,0,2.795,1.31,2.795,3.257a3.685,3.685,0,0,1-.062.723h-4.454a2.072,2.072,0,0,0,2.121,2.1,2.915,2.915,0,0,0,1.635-.512l.5.911a4.16,4.16,0,0,1-2.321.724A3.3,3.3,0,0,1,616,2174.19Zm4.692-.624c0-1.185-.537-1.871-1.535-1.871a1.861,1.861,0,0,0-1.759,1.871Z" transform="translate(-585.052 -2168.849)" fill="#01152f"/>
        <path id="패스_11" data-name="패스 11" d="M639.472,2170.746h1.173l.112,1.235h.037a2.373,2.373,0,0,1,1.947-1.41,1.717,1.717,0,0,1,.773.149l-.262,1.248a2.037,2.037,0,0,0-.686-.112c-.562,0-1.235.387-1.672,1.473v4.279h-1.422Z" transform="translate(-601.242 -2168.849)" fill="#01152f"/>
        <path id="패스_12" data-name="패스 12" d="M652.537,2176.822l.674-.923a3.04,3.04,0,0,0,1.946.786c.823,0,1.21-.4,1.21-.923,0-.624-.773-.9-1.522-1.185-.911-.35-1.959-.836-1.959-2s.923-2.009,2.433-2.009a3.612,3.612,0,0,1,2.233.811l-.674.885a2.569,2.569,0,0,0-1.535-.6c-.748,0-1.1.374-1.1.848,0,.586.711.811,1.46,1.085.961.362,2.021.786,2.021,2.083,0,1.148-.911,2.084-2.608,2.084A4.22,4.22,0,0,1,652.537,2176.822Z" transform="translate(-610.251 -2168.849)" fill="#01152f"/>
      </g>
    </g>
    <path id="패스_216" data-name="패스 216" d="M608.042,1666.27h0a4.715,4.715,0,0,0-2.456.69l-9.81,5.984a4,4,0,0,1-6.079-3.412V1656a4,4,0,0,1,6.079-3.412l9.81,5.984a4.715,4.715,0,0,0,2.456.69h0a2.072,2.072,0,0,0,1.886-2.935,15.293,15.293,0,1,0,.011,12.856A2.066,2.066,0,0,0,608.042,1666.27Z" transform="translate(-177.381 400)" fill="url(#linear-gradient)"/>
  </g>
</svg>
